<svg width="17" height="18" viewBox="0 0 17 18" fill="none" xmlns="http://www.w3.org/2000/svg">
<g clip-path="url(#clip0_293_152)">
<path d="M3.71875 0C3.85965 0 3.99477 0.0592632 4.0944 0.164752C4.19403 0.270242 4.25 0.413316 4.25 0.5625V1.125H12.75V0.5625C12.75 0.413316 12.806 0.270242 12.9056 0.164752C13.0052 0.0592632 13.1404 0 13.2812 0C13.4221 0 13.5573 0.0592632 13.6569 0.164752C13.7565 0.270242 13.8125 0.413316 13.8125 0.5625V1.125H14.875C15.4386 1.125 15.9791 1.36205 16.3776 1.78401C16.7761 2.20597 17 2.77826 17 3.375V15.75C17 16.3467 16.7761 16.919 16.3776 17.341C15.9791 17.7629 15.4386 18 14.875 18H2.125C1.56141 18 1.02091 17.7629 0.622398 17.341C0.223883 16.919 0 16.3467 0 15.75V3.375C0 2.77826 0.223883 2.20597 0.622398 1.78401C1.02091 1.36205 1.56141 1.125 2.125 1.125H3.1875V0.5625C3.1875 0.413316 3.24347 0.270242 3.3431 0.164752C3.44273 0.0592632 3.57785 0 3.71875 0ZM2.125 2.25C1.84321 2.25 1.57296 2.36853 1.3737 2.5795C1.17444 2.79048 1.0625 3.07663 1.0625 3.375V4.5H15.9375V3.375C15.9375 3.07663 15.8256 2.79048 15.6263 2.5795C15.427 2.36853 15.1568 2.25 14.875 2.25H2.125ZM15.9375 5.625H1.0625V15.75C1.0625 16.0484 1.17444 16.3345 1.3737 16.5455C1.57296 16.7565 1.84321 16.875 2.125 16.875H14.875C15.1568 16.875 15.427 16.7565 15.6263 16.5455C15.8256 16.3345 15.9375 16.0484 15.9375 15.75V5.625Z" fill="#333333"/>
</g>
<defs>
<clipPath id="clip0_293_152">
<rect width="17" height="18" fill="white"/>
</clipPath>
</defs>
</svg>
