<svg width="19" height="18" viewBox="0 0 19 18" fill="none" xmlns="http://www.w3.org/2000/svg">
<path d="M12.9035 10.2468C13.5147 9.82057 13.9638 9.23078 14.1877 8.56028C14.4116 7.88978 14.3991 7.17227 14.1519 6.50859C13.9047 5.8449 13.4352 5.2684 12.8095 4.86009C12.1838 4.45179 11.4332 4.23221 10.6633 4.23221C9.89335 4.23221 9.14278 4.45179 8.51704 4.86009C7.8913 5.2684 7.42184 5.8449 7.17463 6.50859C6.92743 7.17227 6.9149 7.88978 7.13882 8.56028C7.36274 9.23078 7.81184 9.82057 8.42301 10.2468C7.27623 10.6366 6.27705 11.3188 5.5449 12.2118C5.45234 12.3241 5.4126 12.4653 5.43442 12.6043C5.45623 12.7433 5.53782 12.8687 5.66122 12.9529C5.78463 13.0372 5.93975 13.0734 6.09246 13.0535C6.24517 13.0336 6.38296 12.9594 6.47551 12.8471C6.96311 12.2553 7.59537 11.775 8.32224 11.4442C9.0491 11.1134 9.8506 10.9412 10.6633 10.9412C11.4759 10.9412 12.2774 11.1134 13.0043 11.4442C13.7312 11.775 14.3634 12.2553 14.851 12.8471C14.9436 12.9594 15.0814 13.0336 15.2341 13.0535C15.3868 13.0734 15.5419 13.0372 15.6653 12.9529C15.7887 12.8687 15.8703 12.7433 15.8921 12.6043C15.9139 12.4653 15.8742 12.3241 15.7816 12.2118C15.0495 11.3188 14.0503 10.6366 12.9035 10.2468ZM8.14286 7.58824C8.14286 7.1345 8.29068 6.69096 8.56762 6.31369C8.84457 5.93643 9.2382 5.64238 9.69875 5.46875C10.1593 5.29511 10.6661 5.24968 11.155 5.3382C11.6439 5.42672 12.093 5.64521 12.4455 5.96605C12.7979 6.28689 13.038 6.69566 13.1352 7.14068C13.2325 7.58569 13.1826 8.04696 12.9918 8.46616C12.8011 8.88535 12.478 9.24364 12.0635 9.49572C11.6491 9.74781 11.1618 9.88235 10.6633 9.88235C9.99481 9.88235 9.35374 9.64065 8.88107 9.21042C8.4084 8.78019 8.14286 8.19667 8.14286 7.58824ZM17.6429 0H3.68367C3.32374 0 2.97854 0.130147 2.72403 0.361809C2.46951 0.593472 2.32653 0.907674 2.32653 1.23529V3.52941H0.581633C0.427374 3.52941 0.279433 3.58519 0.170356 3.68447C0.0612789 3.78376 0 3.91841 0 4.05882C0 4.19923 0.0612789 4.33389 0.170356 4.43317C0.279433 4.53246 0.427374 4.58824 0.581633 4.58824H2.32653V8.47059H0.581633C0.427374 8.47059 0.279433 8.52637 0.170356 8.62565C0.0612789 8.72493 0 8.85959 0 9C0 9.14041 0.0612789 9.27507 0.170356 9.37435C0.279433 9.47364 0.427374 9.52941 0.581633 9.52941H2.32653V13.4118H0.581633C0.427374 13.4118 0.279433 13.4675 0.170356 13.5668C0.0612789 13.6661 0 13.8008 0 13.9412C0 14.0816 0.0612789 14.2162 0.170356 14.3155C0.279433 14.4148 0.427374 14.4706 0.581633 14.4706H2.32653V16.7647C2.32653 17.0923 2.46951 17.4065 2.72403 17.6382C2.97854 17.8699 3.32374 18 3.68367 18H17.6429C18.0028 18 18.348 17.8699 18.6025 17.6382C18.857 17.4065 19 17.0923 19 16.7647V1.23529C19 0.907674 18.857 0.593472 18.6025 0.361809C18.348 0.130147 18.0028 0 17.6429 0ZM17.8367 16.7647C17.8367 16.8115 17.8163 16.8564 17.7799 16.8895C17.7436 16.9226 17.6943 16.9412 17.6429 16.9412H3.68367C3.63225 16.9412 3.58294 16.9226 3.54658 16.8895C3.51022 16.8564 3.4898 16.8115 3.4898 16.7647V1.23529C3.4898 1.18849 3.51022 1.14361 3.54658 1.11051C3.58294 1.07742 3.63225 1.05882 3.68367 1.05882H17.6429C17.6943 1.05882 17.7436 1.07742 17.7799 1.11051C17.8163 1.14361 17.8367 1.18849 17.8367 1.23529V16.7647Z" fill="#333333"/>
</svg>
